ffmpeg started on 2026-01-13 at 09:50:56
Report written to "D:\Convert\FFMetrics\reports\ssim_report-6.txt"
Log level: 32
Command line:
ffmpeg -hide_banner -nostdin -r 24000/1001 -i "F:\\Convert\\files\\[DC] Make Heroine ga Oosugiru - 07_Telegram_HEVC(106).mkv" -r 24000/1001 -i "F:\\Convert\\files\\[DC] Make Heroine ga Oosugiru - 07_Telegram.mp4" -lavfi "[0:v]settb=AVTB,setpts=PTS-STARTPTS,format=pix_fmts=yuv420p10le,fps=24000/1001,scale=1920:1080:flags=lanczos:param0=3:out_range=limited:out_color_matrix=bt709:out_chroma_loc=left,setsar=1/1,setdar=(1920/1080)*(1/1),colorspace=format=yuv420p10:range=tv:primaries=bt709:trc=bt709:space=bt709:fast=0[main];[1:v]settb=AVTB,setpts=PTS-STARTPTS,format=pix_fmts=yuv420p,fps=24000/1001,scale=1920:1080:flags=lanczos:param0=3:out_range=limited:out_color_matrix=bt709:out_chroma_loc=left,setsar=1.000,setdar=1.778,colorspace=format=yuv420p:range=tv:primaries=bt709:trc=bt709:space=bt709:fast=0[ref];[main][ref]ssim=eof_action=endall:stats_file='D\\:/Convert/FFMetrics/logs/ssim_logfile-6.txt'" -f null -
Input #0, matroska,webm, from 'F:\Convert\files\[DC] Make Heroine ga Oosugiru - 07_Telegram_HEVC(106).mkv':
  Metadata:
    COMPATIBLE_BRANDS: isomiso2avc1mp41
    MAJOR_BRAND     : isom
    MINOR_VERSION   : 512
    ENCODER         : Lavf61.7.100
  Duration: 00:24:06.79, start: -0.021000, bitrate: 989 kb/s
  Stream #0:0: Video: hevc (Main 10), yuv420p10le(tv, bt709, progressive), 1920x1080 [SAR 1:1 DAR 16:9], 23.98 fps, 23.98 tbr, 1k tbn (default)
      Metadata:
        HANDLER_NAME    : VideoHandler
        VENDOR_ID       : [0][0][0][0]
        ENCODER         : Lavc61.19.100 libx265
        BPS             : 792188
        DURATION        : 00:24:06.569708333
        NUMBER_OF_FRAMES: 34683
        NUMBER_OF_BYTES : 143244364
        _STATISTICS_WRITING_APP: mkvpropedit v94.0 ('Initiate') 64-bit
        _STATISTICS_WRITING_DATE_UTC: 2026-01-12 12:36:14
        _STATISTICS_TAGS: BPS DURATION NUMBER_OF_FRAMES NUMBER_OF_BYTES
  Stream #0:1: Audio: aac (LC), 48000 Hz, stereo, fltp (default)
      Metadata:
        HANDLER_NAME    : SoundHandler
        VENDOR_ID       : [0][0][0][0]
        ENCODER         : Lavc61.19.100 aac
        BPS             : 193194
        DURATION        : 00:24:06.784000000
        NUMBER_OF_FRAMES: 67819
        NUMBER_OF_BYTES : 34938755
        _STATISTICS_WRITING_APP: mkvpropedit v94.0 ('Initiate') 64-bit
        _STATISTICS_WRITING_DATE_UTC: 2026-01-12 12:36:14
        _STATISTICS_TAGS: BPS DURATION NUMBER_OF_FRAMES NUMBER_OF_BYTES
Input #1, mov,mp4,m4a,3gp,3g2,mj2, from 'F:\Convert\files\[DC] Make Heroine ga Oosugiru - 07_Telegram.mp4':
  Metadata:
    major_brand     : isom
    minor_version   : 512
    compatible_brands: isomiso2avc1mp41
    encoder         : Lavf60.16.100
  Duration: 00:24:06.74, start: 0.000000, bitrate: 3764 kb/s
  Stream #1:0[0x1](und): Video: h264 (High) (avc1 / 0x31637661), yuv420p(tv, bt709, progressive), 1920x1080 [SAR 1:1 DAR 16:9], 3616 kb/s, 23.98 fps, 23.98 tbr, 24k tbn (default)
      Metadata:
        handler_name    : VideoHandler
        vendor_id       : [0][0][0][0]
        encoder         : Lavc60.31.102 h264_qsv
  Stream #1:1[0x2](und): Audio: aac (HE-AACv2) (mp4a / 0x6134706D), 48000 Hz, stereo, fltp, 144 kb/s (default)
      Metadata:
        handler_name    : SoundHandler
        vendor_id       : [0][0][0][0]
Stream mapping:
  Stream #0:0 (hevc) -> settb:default
  Stream #1:0 (h264) -> settb:default
  ssim:default -> Stream #0:0 (wrapped_avframe)
  Stream #0:1 -> #0:1 (aac (native) -> pcm_s16le (native))
Output #0, null, to 'pipe:':
  Metadata:
    COMPATIBLE_BRANDS: isomiso2avc1mp41
    MAJOR_BRAND     : isom
    MINOR_VERSION   : 512
    encoder         : Lavf61.7.100
  Stream #0:0: Video: wrapped_avframe, yuv420p10le(tv, bt709, progressive), 1920x1080 [SAR 1:1 DAR 16:9], q=2-31, 200 kb/s, 23.98 fps, 23.98 tbn
      Metadata:
        encoder         : Lavc61.19.100 wrapped_avframe
  Stream #0:1: Audio: pcm_s16le, 48000 Hz, stereo, s16, 1536 kb/s (default)
      Metadata:
        HANDLER_NAME    : SoundHandler
        VENDOR_ID       : [0][0][0][0]
        _STATISTICS_TAGS: BPS DURATION NUMBER_OF_FRAMES NUMBER_OF_BYTES
        BPS             : 193194
        DURATION        : 00:24:06.784000000
        NUMBER_OF_FRAMES: 67819
        NUMBER_OF_BYTES : 34938755
        _STATISTICS_WRITING_APP: mkvpropedit v94.0 ('Initiate') 64-bit
        _STATISTICS_WRITING_DATE_UTC: 2026-01-12 12:36:14
        encoder         : Lavc61.19.100 pcm_s16le
frame=  113 fps=0.0 q=-0.0 size=N/A time=00:00:04.71 bitrate=N/A speed=9.11x    frame=  267 fps=256 q=-0.0 size=N/A time=00:00:11.13 bitrate=N/A speed=10.7x    frame=  426 fps=274 q=-0.0 size=N/A time=00:00:17.76 bitrate=N/A speed=11.4x    frame=  586 fps=284 q=-0.0 size=N/A time=00:00:24.44 bitrate=N/A speed=11.8x    frame=  758 fps=294 q=-0.0 size=N/A time=00:00:31.61 bitrate=N/A speed=12.3x    frame=  923 fps=297 q=-0.0 size=N/A time=00:00:38.49 bitrate=N/A speed=12.4x    frame= 1044 fps=289 q=-0.0 size=N/A time=00:00:43.54 bitrate=N/A speed=  12x    frame= 1185 fps=287 q=-0.0 size=N/A time=00:00:49.42 bitrate=N/A speed=  12x    frame= 1323 fps=285 q=-0.0 size=N/A time=00:00:55.18 bitrate=N/A speed=11.9x    frame= 1484 fps=287 q=-0.0 size=N/A time=00:01:01.89 bitrate=N/A speed=  12x    frame= 1616 fps=284 q=-0.0 size=N/A time=00:01:07.40 bitrate=N/A speed=11.9x    frame= 1763 fps=285 q=-0.0 size=N/A time=00:01:13.53 bitrate=N/A speed=11.9x    frame= 1929 fps=287 q=-0.0 size=N/A time=00:01:20.45 bitrate=N/A speed=  12x    frame= 2072 fps=286 q=-0.0 size=N/A time=00:01:26.41 bitrate=N/A speed=11.9x    frame= 2198 fps=283 q=-0.0 size=N/A time=00:01:31.67 bitrate=N/A speed=11.8x    frame= 2324 fps=281 q=-0.0 size=N/A time=00:01:36.93 bitrate=N/A speed=11.7x    frame= 2452 fps=279 q=-0.0 size=N/A time=00:01:42.26 bitrate=N/A speed=11.6x    frame= 2563 fps=276 q=-0.0 size=N/A time=00:01:46.89 bitrate=N/A speed=11.5x    frame= 2698 fps=275 q=-0.0 size=N/A time=00:01:52.52 bitrate=N/A speed=11.5x    frame= 2844 fps=275 q=-0.0 size=N/A time=00:01:58.61 bitrate=N/A speed=11.5x    frame= 2990 fps=275 q=-0.0 size=N/A time=00:02:04.70 bitrate=N/A speed=11.5x    frame= 3162 fps=278 q=-0.0 size=N/A time=00:02:11.88 bitrate=N/A speed=11.6x    frame= 3314 fps=279 q=-0.0 size=N/A time=00:02:18.22 bitrate=N/A speed=11.6x    frame= 3464 fps=280 q=-0.0 size=N/A time=00:02:24.47 bitrate=N/A speed=11.7x    frame= 3634 fps=281 q=-0.0 size=N/A time=00:02:31.56 bitrate=N/A speed=11.7x    frame= 3782 fps=282 q=-0.0 size=N/A time=00:02:37.74 bitrate=N/A speed=11.7x    frame= 3939 fps=283 q=-0.0 size=N/A time=00:02:44.28 bitrate=N/A speed=11.8x    frame= 4108 fps=284 q=-0.0 size=N/A time=00:02:51.33 bitrate=N/A speed=11.8x    frame= 4269 fps=285 q=-0.0 size=N/A time=00:02:58.05 bitrate=N/A speed=11.9x    frame= 4427 fps=285 q=-0.0 size=N/A time=00:03:04.64 bitrate=N/A speed=11.9x    frame= 4576 fps=286 q=-0.0 size=N/A time=00:03:10.85 bitrate=N/A speed=11.9x    frame= 4751 fps=287 q=-0.0 size=N/A time=00:03:18.15 bitrate=N/A speed=  12x    frame= 4917 fps=288 q=-0.0 size=N/A time=00:03:25.07 bitrate=N/A speed=  12x    frame= 5089 fps=289 q=-0.0 size=N/A time=00:03:32.25 bitrate=N/A speed=12.1x    frame= 5240 fps=290 q=-0.0 size=N/A time=00:03:38.55 bitrate=N/A speed=12.1x    frame= 5403 fps=290 q=-0.0 size=N/A time=00:03:45.35 bitrate=N/A speed=12.1x    frame= 5575 fps=291 q=-0.0 size=N/A time=00:03:52.52 bitrate=N/A speed=12.2x    frame= 5746 fps=292 q=-0.0 size=N/A time=00:03:59.65 bitrate=N/A speed=12.2x    frame= 5915 fps=293 q=-0.0 size=N/A time=00:04:06.70 bitrate=N/A speed=12.2x    frame= 6094 fps=295 q=-0.0 size=N/A time=00:04:14.17 bitrate=N/A speed=12.3x    frame= 6266 fps=295 q=-0.0 size=N/A time=00:04:21.34 bitrate=N/A speed=12.3x    frame= 6448 fps=297 q=-0.0 size=N/A time=00:04:28.93 bitrate=N/A speed=12.4x    frame= 6622 fps=298 q=-0.0 size=N/A time=00:04:36.19 bitrate=N/A speed=12.4x    frame= 6800 fps=299 q=-0.0 size=N/A time=00:04:43.61 bitrate=N/A speed=12.5x    frame= 6966 fps=299 q=-0.0 size=N/A time=00:04:50.54 bitrate=N/A speed=12.5x    frame= 7115 fps=299 q=-0.0 size=N/A time=00:04:56.75 bitrate=N/A speed=12.5x    frame= 7288 fps=300 q=-0.0 size=N/A time=00:05:03.97 bitrate=N/A speed=12.5x    frame= 7455 fps=300 q=-0.0 size=N/A time=00:05:10.93 bitrate=N/A speed=12.5x    frame= 7606 fps=300 q=-0.0 size=N/A time=00:05:17.23 bitrate=N/A speed=12.5x    frame= 7754 fps=300 q=-0.0 size=N/A time=00:05:23.40 bitrate=N/A speed=12.5x    frame= 7921 fps=300 q=-0.0 size=N/A time=00:05:30.37 bitrate=N/A speed=12.5x    frame= 8087 fps=301 q=-0.0 size=N/A time=00:05:37.29 bitrate=N/A speed=12.5x    frame= 8257 fps=301 q=-0.0 size=N/A time=00:05:44.38 bitrate=N/A speed=12.6x    frame= 8429 fps=302 q=-0.0 size=N/A time=00:05:51.55 bitrate=N/A speed=12.6x    frame= 8592 fps=302 q=-0.0 size=N/A time=00:05:58.35 bitrate=N/A speed=12.6x    frame= 8766 fps=303 q=-0.0 size=N/A time=00:06:05.61 bitrate=N/A speed=12.6x    frame= 8929 fps=303 q=-0.0 size=N/A time=00:06:12.41 bitrate=N/A speed=12.6x    frame= 9101 fps=304 q=-0.0 size=N/A time=00:06:19.58 bitrate=N/A speed=12.7x    frame= 9287 fps=305 q=-0.0 size=N/A time=00:06:27.34 bitrate=N/A speed=12.7x    frame= 9446 fps=305 q=-0.0 size=N/A time=00:06:33.97 bitrate=N/A speed=12.7x    frame= 9618 fps=305 q=-0.0 size=N/A time=00:06:41.15 bitrate=N/A speed=12.7x    frame= 9785 fps=305 q=-0.0 size=N/A time=00:06:48.11 bitrate=N/A speed=12.7x    frame= 9956 fps=306 q=-0.0 size=N/A time=00:06:55.24 bitrate=N/A speed=12.7x    frame=10121 fps=306 q=-0.0 size=N/A time=00:07:02.13 bitrate=N/A speed=12.8x    frame=10291 fps=306 q=-0.0 size=N/A time=00:07:09.22 bitrate=N/A speed=12.8x    frame=10474 fps=307 q=-0.0 size=N/A time=00:07:16.85 bitrate=N/A speed=12.8x    frame=10636 fps=307 q=-0.0 size=N/A time=00:07:23.60 bitrate=N/A speed=12.8x    frame=10805 fps=307 q=-0.0 size=N/A time=00:07:30.65 bitrate=N/A speed=12.8x    frame=10984 fps=308 q=-0.0 size=N/A time=00:07:38.12 bitrate=N/A speed=12.8x    frame=11151 fps=308 q=-0.0 size=N/A time=00:07:45.08 bitrate=N/A speed=12.9x    frame=11320 fps=308 q=-0.0 size=N/A time=00:07:52.13 bitrate=N/A speed=12.9x    frame=11495 fps=309 q=-0.0 size=N/A time=00:07:59.43 bitrate=N/A speed=12.9x    frame=11668 fps=309 q=-0.0 size=N/A time=00:08:06.65 bitrate=N/A speed=12.9x    frame=11835 fps=310 q=-0.0 size=N/A time=00:08:13.61 bitrate=N/A speed=12.9x    frame=12003 fps=310 q=-0.0 size=N/A time=00:08:20.62 bitrate=N/A speed=12.9x    frame=12181 fps=310 q=-0.0 size=N/A time=00:08:28.04 bitrate=N/A speed=12.9x    frame=12353 fps=310 q=-0.0 size=N/A time=00:08:35.22 bitrate=N/A speed=  13x    frame=12535 fps=311 q=-0.0 size=N/A time=00:08:42.81 bitrate=N/A speed=  13x    frame=12703 fps=311 q=-0.0 size=N/A time=00:08:49.82 bitrate=N/A speed=  13x    frame=12875 fps=311 q=-0.0 size=N/A time=00:08:56.99 bitrate=N/A speed=  13x    frame=13047 fps=312 q=-0.0 size=N/A time=00:09:04.16 bitrate=N/A speed=  13x    frame=13214 fps=312 q=-0.0 size=N/A time=00:09:11.13 bitrate=N/A speed=  13x    frame=13383 fps=312 q=-0.0 size=N/A time=00:09:18.18 bitrate=N/A speed=  13x    frame=13552 fps=312 q=-0.0 size=N/A time=00:09:25.23 bitrate=N/A speed=  13x    frame=13708 fps=312 q=-0.0 size=N/A time=00:09:31.73 bitrate=N/A speed=  13x    frame=13888 fps=313 q=-0.0 size=N/A time=00:09:39.24 bitrate=N/A speed=  13x    frame=14052 fps=313 q=-0.0 size=N/A time=00:09:46.08 bitrate=N/A speed=  13x    frame=14224 fps=313 q=-0.0 size=N/A time=00:09:53.25 bitrate=N/A speed=  13x    frame=14409 fps=313 q=-0.0 size=N/A time=00:10:00.97 bitrate=N/A speed=13.1x    frame=14594 fps=314 q=-0.0 size=N/A time=00:10:08.69 bitrate=N/A speed=13.1x    frame=14765 fps=314 q=-0.0 size=N/A time=00:10:15.82 bitrate=N/A speed=13.1x    frame=14942 fps=314 q=-0.0 size=N/A time=00:10:23.20 bitrate=N/A speed=13.1x    frame=15114 fps=315 q=-0.0 size=N/A time=00:10:30.37 bitrate=N/A speed=13.1x    frame=15279 fps=315 q=-0.0 size=N/A time=00:10:37.26 bitrate=N/A speed=13.1x    frame=15465 fps=315 q=-0.0 size=N/A time=00:10:45.01 bitrate=N/A speed=13.1x    frame=15663 fps=316 q=-0.0 size=N/A time=00:10:53.27 bitrate=N/A speed=13.2x    frame=15847 fps=316 q=-0.0 size=N/A time=00:11:00.95 bitrate=N/A speed=13.2x    frame=16035 fps=317 q=-0.0 size=N/A time=00:11:08.79 bitrate=N/A speed=13.2x    frame=16192 fps=317 q=-0.0 size=N/A time=00:11:15.34 bitrate=N/A speed=13.2x    frame=16356 fps=317 q=-0.0 size=N/A time=00:11:22.18 bitrate=N/A speed=13.2x    frame=16515 fps=317 q=-0.0 size=N/A time=00:11:28.81 bitrate=N/A speed=13.2x    frame=16666 fps=316 q=-0.0 size=N/A time=00:11:35.11 bitrate=N/A speed=13.2x    frame=16831 fps=316 q=-0.0 size=N/A time=00:11:41.99 bitrate=N/A speed=13.2x    frame=17020 fps=317 q=-0.0 size=N/A time=00:11:49.87 bitrate=N/A speed=13.2x    frame=17203 fps=317 q=-0.0 size=N/A time=00:11:57.50 bitrate=N/A speed=13.2x    frame=17374 fps=317 q=-0.0 size=N/A time=00:12:04.64 bitrate=N/A speed=13.2x    frame=17552 fps=318 q=-0.0 size=N/A time=00:12:12.06 bitrate=N/A speed=13.2x    frame=17720 fps=318 q=-0.0 size=N/A time=00:12:19.07 bitrate=N/A speed=13.3x    frame=17879 fps=318 q=-0.0 size=N/A time=00:12:25.70 bitrate=N/A speed=13.2x    frame=18059 fps=318 q=-0.0 size=N/A time=00:12:33.21 bitrate=N/A speed=13.3x    frame=18224 fps=318 q=-0.0 size=N/A time=00:12:40.09 bitrate=N/A speed=13.3x    frame=18389 fps=318 q=-0.0 size=N/A time=00:12:46.97 bitrate=N/A speed=13.3x    frame=18574 fps=318 q=-0.0 size=N/A time=00:12:54.69 bitrate=N/A speed=13.3x    frame=18759 fps=319 q=-0.0 size=N/A time=00:13:02.40 bitrate=N/A speed=13.3x    frame=18940 fps=319 q=-0.0 size=N/A time=00:13:09.95 bitrate=N/A speed=13.3x    frame=19137 fps=319 q=-0.0 size=N/A time=00:13:18.17 bitrate=N/A speed=13.3x    frame=19326 fps=320 q=-0.0 size=N/A time=00:13:26.05 bitrate=N/A speed=13.3x    frame=19508 fps=320 q=-0.0 size=N/A time=00:13:33.64 bitrate=N/A speed=13.4x    frame=19698 fps=321 q=-0.0 size=N/A time=00:13:41.57 bitrate=N/A speed=13.4x    frame=19892 fps=321 q=-0.0 size=N/A time=00:13:49.66 bitrate=N/A speed=13.4x    frame=20075 fps=321 q=-0.0 size=N/A time=00:13:57.29 bitrate=N/A speed=13.4x    frame=20263 fps=322 q=-0.0 size=N/A time=00:14:05.13 bitrate=N/A speed=13.4x    frame=20439 fps=322 q=-0.0 size=N/A time=00:14:12.47 bitrate=N/A speed=13.4x    frame=20616 fps=322 q=-0.0 size=N/A time=00:14:19.85 bitrate=N/A speed=13.4x    frame=20803 fps=322 q=-0.0 size=N/A time=00:14:27.65 bitrate=N/A speed=13.4x    frame=20981 fps=323 q=-0.0 size=N/A time=00:14:35.08 bitrate=N/A speed=13.5x    frame=21166 fps=323 q=-0.0 size=N/A time=00:14:42.79 bitrate=N/A speed=13.5x    frame=21355 fps=323 q=-0.0 size=N/A time=00:14:50.68 bitrate=N/A speed=13.5x    frame=21523 fps=323 q=-0.0 size=N/A time=00:14:57.68 bitrate=N/A speed=13.5x    frame=21689 fps=323 q=-0.0 size=N/A time=00:15:04.61 bitrate=N/A speed=13.5x    frame=21850 fps=323 q=-0.0 size=N/A time=00:15:11.32 bitrate=N/A speed=13.5x    frame=22031 fps=323 q=-0.0 size=N/A time=00:15:18.87 bitrate=N/A speed=13.5x    frame=22214 fps=323 q=-0.0 size=N/A time=00:15:26.50 bitrate=N/A speed=13.5x    frame=22405 fps=324 q=-0.0 size=N/A time=00:15:34.47 bitrate=N/A speed=13.5x    frame=22585 fps=324 q=-0.0 size=N/A time=00:15:41.98 bitrate=N/A speed=13.5x    frame=22751 fps=324 q=-0.0 size=N/A time=00:15:48.90 bitrate=N/A speed=13.5x    frame=22929 fps=324 q=-0.0 size=N/A time=00:15:56.33 bitrate=N/A speed=13.5x    frame=23097 fps=324 q=-0.0 size=N/A time=00:16:03.33 bitrate=N/A speed=13.5x    frame=23280 fps=324 q=-0.0 size=N/A time=00:16:10.97 bitrate=N/A speed=13.5x    frame=23459 fps=324 q=-0.0 size=N/A time=00:16:18.43 bitrate=N/A speed=13.5x    frame=23658 fps=325 q=-0.0 size=N/A time=00:16:26.73 bitrate=N/A speed=13.5x    frame=23840 fps=325 q=-0.0 size=N/A time=00:16:34.32 bitrate=N/A speed=13.6x    frame=23999 fps=325 q=-0.0 size=N/A time=00:16:40.95 bitrate=N/A speed=13.6x    frame=24159 fps=325 q=-0.0 size=N/A time=00:16:47.63 bitrate=N/A speed=13.6x    frame=24340 fps=325 q=-0.0 size=N/A time=00:16:55.18 bitrate=N/A speed=13.6x    frame=24524 fps=325 q=-0.0 size=N/A time=00:17:02.85 bitrate=N/A speed=13.6x    frame=24693 fps=325 q=-0.0 size=N/A time=00:17:09.90 bitrate=N/A speed=13.6x    frame=24868 fps=325 q=-0.0 size=N/A time=00:17:17.20 bitrate=N/A speed=13.6x    frame=25053 fps=326 q=-0.0 size=N/A time=00:17:24.91 bitrate=N/A speed=13.6x    frame=25252 fps=326 q=-0.0 size=N/A time=00:17:33.21 bitrate=N/A speed=13.6x    frame=25435 fps=326 q=-0.0 size=N/A time=00:17:40.85 bitrate=N/A speed=13.6x    frame=25616 fps=326 q=-0.0 size=N/A time=00:17:48.40 bitrate=N/A speed=13.6x    frame=25813 fps=327 q=-0.0 size=N/A time=00:17:56.61 bitrate=N/A speed=13.6x    frame=25999 fps=327 q=-0.0 size=N/A time=00:18:04.37 bitrate=N/A speed=13.6x    frame=26183 fps=327 q=-0.0 size=N/A time=00:18:12.04 bitrate=N/A speed=13.6x    frame=26364 fps=327 q=-0.0 size=N/A time=00:18:19.59 bitrate=N/A speed=13.6x    frame=26531 fps=327 q=-0.0 size=N/A time=00:18:26.56 bitrate=N/A speed=13.6x    frame=26698 fps=327 q=-0.0 size=N/A time=00:18:33.52 bitrate=N/A speed=13.6x    frame=26874 fps=327 q=-0.0 size=N/A time=00:18:40.86 bitrate=N/A speed=13.7x    frame=27035 fps=327 q=-0.0 size=N/A time=00:18:47.58 bitrate=N/A speed=13.6x    frame=27200 fps=327 q=-0.0 size=N/A time=00:18:54.46 bitrate=N/A speed=13.6x    frame=27363 fps=327 q=-0.0 size=N/A time=00:19:01.26 bitrate=N/A speed=13.6x    frame=27533 fps=327 q=-0.0 size=N/A time=00:19:08.35 bitrate=N/A speed=13.6x    frame=27709 fps=327 q=-0.0 size=N/A time=00:19:15.69 bitrate=N/A speed=13.6x    frame=27884 fps=327 q=-0.0 size=N/A time=00:19:22.99 bitrate=N/A speed=13.7x    frame=28059 fps=327 q=-0.0 size=N/A time=00:19:30.29 bitrate=N/A speed=13.7x    frame=28233 fps=327 q=-0.0 size=N/A time=00:19:37.55 bitrate=N/A speed=13.7x    frame=28419 fps=328 q=-0.0 size=N/A time=00:19:45.30 bitrate=N/A speed=13.7x    frame=28611 fps=328 q=-0.0 size=N/A time=00:19:53.31 bitrate=N/A speed=13.7x    frame=28788 fps=328 q=-0.0 size=N/A time=00:20:00.69 bitrate=N/A speed=13.7x    frame=28957 fps=328 q=-0.0 size=N/A time=00:20:07.74 bitrate=N/A speed=13.7x    frame=29130 fps=328 q=-0.0 size=N/A time=00:20:14.96 bitrate=N/A speed=13.7x    frame=29293 fps=328 q=-0.0 size=N/A time=00:20:21.76 bitrate=N/A speed=13.7x    frame=29448 fps=328 q=-0.0 size=N/A time=00:20:28.22 bitrate=N/A speed=13.7x    frame=29597 fps=328 q=-0.0 size=N/A time=00:20:34.44 bitrate=N/A speed=13.7x    frame=29741 fps=327 q=-0.0 size=N/A time=00:20:40.44 bitrate=N/A speed=13.7x    frame=29888 fps=327 q=-0.0 size=N/A time=00:20:46.57 bitrate=N/A speed=13.6x    frame=30030 fps=327 q=-0.0 size=N/A time=00:20:52.50 bitrate=N/A speed=13.6x    frame=30209 fps=327 q=-0.0 size=N/A time=00:20:59.96 bitrate=N/A speed=13.6x    frame=30379 fps=327 q=-0.0 size=N/A time=00:21:07.05 bitrate=N/A speed=13.6x    frame=30560 fps=327 q=-0.0 size=N/A time=00:21:14.60 bitrate=N/A speed=13.6x    frame=30749 fps=327 q=-0.0 size=N/A time=00:21:22.48 bitrate=N/A speed=13.6x    frame=30901 fps=327 q=-0.0 size=N/A time=00:21:28.82 bitrate=N/A speed=13.6x    frame=31055 fps=327 q=-0.0 size=N/A time=00:21:35.25 bitrate=N/A speed=13.6x    frame=31216 fps=327 q=-0.0 size=N/A time=00:21:41.96 bitrate=N/A speed=13.6x    frame=31380 fps=327 q=-0.0 size=N/A time=00:21:48.80 bitrate=N/A speed=13.6x    frame=31553 fps=327 q=-0.0 size=N/A time=00:21:56.02 bitrate=N/A speed=13.6x    frame=31737 fps=327 q=-0.0 size=N/A time=00:22:03.69 bitrate=N/A speed=13.6x    frame=31904 fps=327 q=-0.0 size=N/A time=00:22:10.66 bitrate=N/A speed=13.6x    frame=32077 fps=327 q=-0.0 size=N/A time=00:22:17.87 bitrate=N/A speed=13.6x    frame=32263 fps=327 q=-0.0 size=N/A time=00:22:25.63 bitrate=N/A speed=13.6x    frame=32449 fps=327 q=-0.0 size=N/A time=00:22:33.39 bitrate=N/A speed=13.7x    frame=32625 fps=327 q=-0.0 size=N/A time=00:22:40.73 bitrate=N/A speed=13.7x    frame=32753 fps=327 q=-0.0 size=N/A time=00:22:46.07 bitrate=N/A speed=13.6x    frame=32887 fps=327 q=-0.0 size=N/A time=00:22:51.66 bitrate=N/A speed=13.6x    frame=33069 fps=327 q=-0.0 size=N/A time=00:22:59.25 bitrate=N/A speed=13.6x    frame=33224 fps=327 q=-0.0 size=N/A time=00:23:05.71 bitrate=N/A speed=13.6x    frame=33394 fps=327 q=-0.0 size=N/A time=00:23:12.80 bitrate=N/A speed=13.6x    frame=33546 fps=327 q=-0.0 size=N/A time=00:23:19.14 bitrate=N/A speed=13.6x    frame=33685 fps=326 q=-0.0 size=N/A time=00:23:24.94 bitrate=N/A speed=13.6x    frame=33815 fps=326 q=-0.0 size=N/A time=00:23:30.36 bitrate=N/A speed=13.6x    frame=33940 fps=325 q=-0.0 size=N/A time=00:23:35.58 bitrate=N/A speed=13.6x    frame=34089 fps=325 q=-0.0 size=N/A time=00:23:41.79 bitrate=N/A speed=13.6x    frame=34238 fps=325 q=-0.0 size=N/A time=00:23:48.00 bitrate=N/A speed=13.6x    frame=34361 fps=325 q=-0.0 size=N/A time=00:23:53.14 bitrate=N/A speed=13.5x    frame=34480 fps=324 q=-0.0 size=N/A time=00:23:58.10 bitrate=N/A speed=13.5x    frame=34631 fps=324 q=-0.0 size=N/A time=00:24:04.40 bitrate=N/A speed=13.5x    [Parsed_ssim_16 @ 000001d5f22ed280] SSIM Y:0.994159 (22.335194) U:0.993974 (22.199511) V:0.993577 (21.922367) All:0.994031 (22.241070)
[out#0/null @ 000001d5e5158a00] video:14903KiB audio:271276KiB subtitle:0KiB other streams:0KiB global headers:0KiB muxing overhead: unknown
frame=34683 fps=324 q=-0.0 Lsize=N/A time=00:24:06.57 bitrate=N/A speed=13.5x    
